<?xml version="1.0" encoding="UTF-8" standalone="no"?>
<svg
   xmlns:dc="http://purl.org/dc/elements/1.1/"
   xmlns:cc="http://creativecommons.org/ns#"
   xmlns:rdf="http://www.w3.org/1999/02/22-rdf-syntax-ns#"
   xmlns:svg="http://www.w3.org/2000/svg"
   xmlns="http://www.w3.org/2000/svg"
   viewBox="0 0 1133.8583 850.39368"
   id="svg149"
   height="850.39368"
   width="1133.8583"
   version="1.1">
  <metadata
     id="metadata155">
    <rdf:RDF>
      <cc:Work
         rdf:about="">
        <dc:format>image/svg+xml</dc:format>
        <dc:type
           rdf:resource="http://purl.org/dc/dcmitype/StillImage" />
      </cc:Work>
    </rdf:RDF>
  </metadata>
  <defs
     id="defs153" />
  <g
     id="Layer1000">
    <path
       id="path2"
       style="fill:none"
       d="M 0,0 V 850.3937 H 1133.8583 V 0 Z" />
    <g
       id="Layer1001">
      <path
         id="path4"
         style="fill:#ffcb00;fill-rule:evenodd"
         d="M 664.4221,322.7269 C 672.0147,236.7873 639.2993,166.2026 566.9296,113.0632 494.5587,166.2026 461.8433,236.7873 469.4359,322.7269 389.637,291.9736 312.6995,303.509 241.3452,358.0043 c 30.631,84.3978 89.1602,135.6512 171.5012,153.7252 -59.1716,65.1514 -75.3334,141.2519 -49.3001,227.1802 89.7789,0.8893 158.2943,-35.9635 203.3833,-108.8358 45.089,72.8736 113.6044,109.7276 203.3846,108.8358 26.0321,-85.9271 9.8702,-162.0288 -49.3001,-227.1802 C 803.3538,493.6555 861.883,442.4021 892.514,358.0043 821.1597,303.509 744.2222,291.9736 664.4221,322.7269 Z" />
      <path
         id="path6"
         style="fill:#000200;fill-rule:evenodd"
         d="m 657.8473,322.1593 c 3.6959,-41.8459 -2.3949,-79.8862 -18.1937,-113.8638 -15.2114,-32.7142 -39.4798,-61.7948 -72.724,-87.0148 -33.2455,25.22 -57.5126,54.3006 -72.7252,87.0148 -15.7988,33.9764 -21.8896,72.0191 -18.1937,113.8638 l 0.928,10.5089 -9.8753,-3.8056 C 428.17,313.8745 390.0312,309.2032 352.9888,314.9322 c -35.5556,5.4983 -70.2418,20.6049 -103.7604,45.3859 14.7823,38.8286 35.7277,70.2031 62.3972,94.1084 27.9592,25.0617 62.3335,42.0168 102.6128,50.858 l 11.14,2.4448 -7.6587,8.4345 c -28.7251,31.6302 -47.0224,65.8549 -54.9817,102.533 -7.7011,35.487 -5.7515,73.415 5.7553,113.6469 41.7124,-0.2433 78.564,-8.9522 110.3114,-25.9398 32.986,-17.6512 60.586,-44.3182 82.5306,-79.7852 l 5.5931,-9.042 5.5956,9.042 c 21.9445,35.4683 49.5457,62.1353 82.5318,79.7864 31.7474,16.9901 68.5977,25.6966 110.3114,25.9386 11.5068,-40.2319 13.4551,-78.1574 5.754,-113.6469 -7.9581,-36.6781 -26.2541,-70.9028 -54.9805,-102.533 l -7.6599,-8.4345 11.1413,-2.4448 c 40.2792,-8.8412 74.6548,-25.7976 102.6116,-50.858 26.6694,-23.9053 47.6148,-55.2798 62.3971,-94.1084 -33.5186,-24.781 -68.2048,-39.8876 -103.7603,-45.3859 -37.0437,-5.729 -75.1825,-1.0577 -114.076,13.9304 l -9.8764,3.8056 z m -6.2317,-119.3821 c 15.4858,33.3041 22.209,70.137 20.1022,110.2852 37.7447,-13.0035 74.8943,-16.7343 111.1634,-11.125 39.1541,6.0546 77.1507,22.9723 113.6293,50.833 l 3.8406,2.9325 -1.649,4.5441 C 883.0953,403.248 860.3538,437.9129 831,464.2232 c -27.1797,24.3631 -59.9337,41.4891 -97.8505,51.3731 26.1718,31.0751 43.102,64.5538 50.8618,100.3165 8.4832,39.093 5.9885,80.778 -7.3806,124.9053 l -1.3995,4.6177 -4.8659,0.0486 c -45.9584,0.4553 -86.552,-8.7763 -121.4964,-27.4765 -32.3087,-17.2894 -59.6979,-42.6143 -81.9393,-75.7924 -22.2401,33.1781 -49.6293,58.5017 -81.9381,75.7912 -34.9443,18.6989 -75.5379,27.9318 -121.4963,27.4777 l -4.8672,-0.0486 -1.3983,-4.6177 c -13.369,-44.1273 -15.8649,-85.8148 -7.3817,-124.9053 7.7609,-35.7627 24.6912,-69.2414 50.8629,-100.3165 -37.9155,-9.884 -70.6708,-27.01 -97.8517,-51.3731 C 273.5055,437.9129 250.7639,403.248 235.1571,360.247 l -1.6502,-4.5441 3.8418,-2.9325 c 36.4786,-27.8607 74.4752,-44.7784 113.6294,-50.833 36.269,-5.6093 73.4174,-1.8785 111.1621,11.125 -2.1068,-40.1482 4.6164,-76.9836 20.1022,-110.2852 16.7568,-36.0345 43.7169,-67.8007 80.7943,-95.0252 l 3.8929,-2.8589 3.893,2.8589 c 37.0761,27.2245 64.0387,58.9919 80.793,95.0252 z" />
      <path
         id="path8"
         style="fill:#ffcb00;fill-rule:evenodd"
         d="m 611.2465,683.6523 c -8.674,19.4499 -22.7179,36.43 -45.2923,49.4996 -22.4497,-14.4841 -38.0989,-30.5911 -43.8317,-49.0668 16.8479,-14.9831 31.8035,-32.996 44.8071,-54.0112 12.8776,20.8119 27.6686,38.6814 44.3169,53.5784 z m 50.4813,-427.4064 -0.005,0.0137 c 3.8468,20.9878 4.7562,43.1407 2.6993,66.4249 25.9348,-9.995 51.5677,-15.5183 76.8052,-16.5561 4.962,-21.0751 4.0078,-43.4188 -6.4288,-67.7944 -26.8428,-1.8448 -49.0206,2.1554 -73.0707,17.9119 z m -188.7058,-4.5453 0.005,0.0124 c -4.5915,22.34 -5.7989,46.0258 -3.5911,71.0139 -22.7566,-8.7701 -45.2811,-14.095 -67.5088,-15.971 l -0.01,-0.007 c -5.1153,-21.2448 -4.2397,-43.7731 6.2916,-68.372 26.8429,-1.8448 49.1454,1.7588 64.8133,13.3242 z m -135.2271,232.2019 2.0693,-0.5401 c 21.6864,13.0011 46.062,22.4585 72.9822,28.3671 -16.3078,17.9556 -29.3413,36.7456 -39.133,56.3414 -19.148,1.6128 -38.9521,-1.8149 -59.7416,-12.8053 0.3555,-26.904 6.1544,-48.6801 23.8231,-71.3631 z m 459.8299,0 -3.1583,-0.8232 c -21.8048,13.147 -46.3364,22.6979 -73.4524,28.6502 16.2654,17.9094 29.2727,36.6483 39.0556,56.1904 19.6569,1.9521 39.9961,-1.3508 61.3769,-12.653 -0.3543,-26.904 -6.1532,-48.6814 -23.8218,-71.3644 z" />
      <path
         id="path10"
         style="fill:#000200;fill-rule:evenodd"
         d="m 617.2537,686.3341 c -4.5977,10.3106 -10.6386,19.9887 -18.5417,28.8436 -7.882,8.8287 -17.5652,16.788 -29.4573,23.6721 l -3.4889,2.0195 -3.369,-2.1742 c -11.7001,-7.5476 -21.6677,-15.5618 -29.501,-24.1461 -8.0641,-8.8349 -13.8929,-18.3085 -17.0637,-28.5305 l -1.256,-4.0464 3.1632,-2.8115 c 8.1826,-7.277 15.9087,-15.2924 23.1645,-24.04 7.3256,-8.83 14.1399,-18.3348 20.4315,-28.5019 l 5.5931,-9.0407 5.5956,9.0407 c 6.2304,10.0686 12.9723,19.4873 20.2157,28.2437 7.2358,8.7476 14.8696,16.7156 22.89,23.8916 l 3.5761,3.1994 z m -28.3384,20.0773 c 5.8413,-6.5448 10.5413,-13.6435 14.3133,-21.1849 -7.282,-6.8043 -14.1686,-14.1275 -20.6473,-21.9595 -5.4472,-6.586 -10.666,-13.6036 -15.6517,-21.0477 -5.0517,7.5427 -10.3417,14.645 -15.8675,21.3059 -6.7119,8.0927 -13.8031,15.5955 -21.2659,22.5008 2.7603,6.8355 7.1161,13.3753 12.8464,19.6544 6.2841,6.8854 14.201,13.4314 23.4775,19.6906 9.1006,-5.6729 16.6109,-12.0319 22.7952,-18.9596 z m 66.6195,-452.3945 0.005,-0.0137 2.5783,-3.2743 c 12.693,-8.3148 24.9519,-13.5437 37.6287,-16.46 12.5944,-2.8976 25.4632,-3.4738 39.4896,-2.5096 l 4.0277,0.2769 1.5929,3.7195 c 5.5145,12.8801 8.5268,25.25 9.5047,37.1984 0.9792,11.9657 -0.0823,23.4912 -2.7142,34.6699 l -1.1475,4.8721 -5.0144,0.2071 c -12.2015,0.5014 -24.5539,2.0993 -37.0374,4.7898 -12.4946,2.693 -25.0516,6.4712 -37.6536,11.3271 l -9.8764,3.8057 0.9292,-10.5089 c 1.0116,-11.4581 1.2985,-22.537 0.8657,-33.223 -0.4366,-10.7671 -1.5941,-21.256 -3.4614,-31.4481 z m 13.4214,5.4596 c 1.5367,9.415 2.5059,19.0519 2.9063,28.901 0.3293,8.1214 0.2806,16.3365 -0.1484,24.6438 10.0635,-3.4689 20.0647,-6.2767 29.9998,-8.4184 11.4008,-2.4572 22.7741,-4.0513 34.1087,-4.7785 1.5692,-8.3809 2.1155,-16.9764 1.3895,-25.84 -0.7721,-9.4225 -2.9836,-19.173 -6.9327,-29.3101 -11.2249,-0.5152 -21.5803,0.1322 -31.594,2.4348 -9.9438,2.2876 -19.6706,6.2454 -29.7292,12.3674 z m -189.8234,-10.2257 0.005,0.0124 0.3343,3.7645 c -2.2265,10.837 -3.6347,22.0194 -4.2172,33.5336 -0.5776,11.4569 -0.3268,23.3266 0.7559,35.598 l 0.928,10.5077 -9.8753,-3.8044 c -11.029,-4.2497 -22.0555,-7.6799 -33.0658,-10.2844 -10.9317,-2.5857 -21.8061,-4.337 -32.6118,-5.2476 l -3.4028,-1.3147 -0.01,-0.007 -2.4498,-3.7383 c -2.7204,-11.3034 -3.8505,-22.9274 -2.9025,-34.9655 0.9479,-12.0382 3.9653,-24.5104 9.5297,-37.5064 l 1.5916,-3.7196 4.0289,-0.2769 c 13.964,-0.9592 26.8104,-0.4902 38.2723,1.7363 11.8336,2.3001 22.2252,6.4762 30.898,12.8776 z m -17.0275,36.6919 c 0.5401,-10.6611 1.7525,-21.0727 3.6335,-31.2298 -6.3253,-3.9092 -13.7682,-6.5997 -22.1703,-8.2325 -9.2129,-1.7899 -19.5584,-2.3076 -30.8381,-1.7675 -3.9903,10.2445 -6.2093,20.096 -6.9602,29.622 -0.7135,9.052 -0.1123,17.8021 1.5429,26.3077 9.8341,1.0441 19.7305,2.7429 29.6756,5.0954 8.3223,1.9683 16.7094,4.4106 25.154,7.3232 -0.4753,-9.173 -0.4877,-18.2125 -0.0374,-27.1185 z m -125.9607,191.5921 2.0694,-0.5401 2.6643,-0.696 2.3637,1.417 c 10.5214,6.3078 21.6926,11.7562 33.4887,16.3415 11.8086,4.5889 24.3183,8.3322 37.5077,11.2273 l 11.1413,2.4448 -7.66,8.4345 c -7.9281,8.729 -15.0766,17.6824 -21.4468,26.8541 -6.3478,9.1381 -11.9009,18.4732 -16.6558,27.9917 l -1.6615,3.3229 -3.7008,0.3131 c -10.1285,0.8532 -20.4839,0.363 -31.1113,-1.8061 -10.5563,-2.1542 -21.2934,-5.9624 -32.2401,-11.7475 l -3.56,-1.8823 0.0537,-4.0214 c 0.1846,-14.0738 1.8124,-26.8603 5.7278,-39.1729 3.9403,-12.3886 10.1546,-24.1785 19.4873,-36.1605 z m 35.8412,28.7937 c -11.0464,-4.2933 -21.5678,-9.2964 -31.5478,-15.0055 -6.934,9.5322 -11.6826,18.9172 -14.7823,28.664 -3.1146,9.7979 -4.6064,20.0623 -5.0106,31.2846 8.5768,4.1811 16.944,7.0076 25.1278,8.6778 8.0154,1.6353 15.9336,2.1679 23.7681,1.7874 4.6439,-8.9197 9.9451,-17.6723 15.9024,-26.2478 4.6713,-6.7245 9.7593,-13.3579 15.265,-19.8939 -9.9014,-2.5845 -19.4785,-5.6742 -28.7226,-9.2666 z m 424.1309,-29.6169 3.1583,0.8232 3.5325,2.3201 c 9.3314,11.982 15.5469,23.7731 19.486,36.1605 3.9167,12.3126 5.5432,25.1003 5.7278,39.1741 l 0.0524,4.0215 -3.5587,1.8822 c -11.2922,5.9686 -22.3262,9.8316 -33.1394,11.9421 -10.8419,2.1167 -21.4805,2.4722 -31.9507,1.4332 l -3.6061,-0.358 -1.6278,-3.2518 c -4.7075,-9.4038 -10.2607,-18.7114 -16.6546,-27.9131 -6.3564,-9.1443 -13.4875,-18.0753 -21.3957,-26.7818 l -7.6612,-8.4345 11.1426,-2.4448 c 13.2468,-2.9063 25.8375,-6.6858 37.7471,-11.3309 11.866,-4.6276 23.1071,-10.1371 33.6946,-16.5211 l 2.3587,-1.4232 z m -1.5903,13.9902 c -10.2133,5.9187 -21.009,11.0939 -32.3624,15.5232 -9.3139,3.6335 -18.9883,6.7594 -29.012,9.3726 5.4859,6.5123 10.5576,13.1208 15.2139,19.819 5.9099,8.5044 11.2074,17.2545 15.8862,26.2429 8.0491,0.5152 16.2392,0.0649 24.5964,-1.5667 8.4644,-1.6514 17.0973,-4.5203 25.9235,-8.8212 -0.4041,-11.2211 -1.8934,-21.488 -5.0093,-31.2846 -3.167,-9.9601 -8.0554,-19.5397 -15.2363,-29.2852 z" />
      <g
         id="Layer1002">
        <path
           id="path12"
           style="fill:#ffffff;fill-rule:evenodd"
           d="m 559.9932,217.0535 h 12.49 l 6.9042,236.4058 h -24.9176 z" />
        <path
           id="path14"
           style="fill:#000200;fill-rule:evenodd"
           d="m 559.9932,214.5689 h 12.4901 2.4034 l 0.0712,2.4163 6.9038,236.4061 0.0741,2.5525 h -2.5487 -24.9174 -2.5344 l 0.0598,-2.5329 5.5235,-236.406 0.0567,-2.436 z m 10.0859,4.9688 h -7.6681 l -5.4078,231.4373 h 19.8344 z" />
        <path
           id="path16"
           style="fill:#ffffff;fill-rule:evenodd"
           d="m 568.0644,566.6262 87.5853,-0.4119 v -29.4102 l -3.1354,4.0789 -84.4499,-5.5601 z" />
        <path
           id="path18"
           style="fill:#000200;fill-rule:evenodd"
           d="m 570.5453,564.1679 82.6241,-0.389 v -20.3966 l -0.8105,-0.053 -81.8136,-5.3865 z m 85.1145,4.4928 -87.5853,0.4117 -2.4905,0.0114 v -2.458 -31.3029 -2.6206 l 2.6358,0.1741 83.1311,5.4728 2.3315,-3.0323 4.4482,-5.7861 v 7.2731 29.4103 2.4344 z" />
        <path
           id="path20"
           style="fill:#ffffff;fill-rule:evenodd"
           d="m 599.6047,566.4776 -27.1877,0.1278 c -0.6428,-7.3754 1.1466,-20.9442 13.9528,-25.4707 9.9586,4.3048 14.2,17.4901 13.2349,25.3429 z" />
        <path
           id="path22"
           style="fill:#000200;fill-rule:evenodd"
           d="m 599.6143,568.9491 -27.1878,0.1278 -2.2838,0.0106 -0.1975,-2.2687 c -0.4057,-4.6631 0.1006,-11.6456 3.3993,-17.6678 2.4034,-4.3876 6.2439,-8.2463 12.201,-10.3516 l 0.9059,-0.3208 0.8967,0.3882 c 5.0566,2.1855 8.7768,6.3385 11.2264,11.0303 2.943,5.6363 4.0751,12.1307 3.4916,16.8808 l -0.2664,2.1606 z m -24.8297,-4.8266 22.4769,-0.1052 c -0.0212,-3.5855 -1.0299,-7.9315 -3.0671,-11.8333 -1.8215,-3.4886 -4.4557,-6.5814 -7.9186,-8.3628 -4.1318,1.6997 -6.8508,4.5201 -8.5891,7.6939 -2.2521,4.1114 -2.9271,8.8449 -2.9021,12.6074 z" />
        <path
           id="path24"
           style="fill:#ffffff;fill-rule:evenodd"
           d="m 621.5756,566.5217 -19.9458,0.0664 c -0.6088,-5.8332 -0.5951,-15.2752 9.7017,-20.1308 8.6693,4.4251 12.5333,13.8537 10.2441,20.0644 z" />
        <path
           id="path26"
           style="fill:#000200;fill-rule:evenodd"
           d="m 621.5759,568.9929 -19.9464,0.0666 -2.2302,0.007 -0.2315,-2.2263 c -0.33,-3.1647 -0.4851,-7.3284 0.868,-11.4496 1.4045,-4.2756 4.3634,-8.4007 10.2395,-11.1719 l 1.1041,-0.5214 1.0769,0.5502 c 4.6479,2.3731 8.0692,6.0517 10.0897,10.0087 2.2589,4.4232 2.7818,9.2505 1.3561,13.1183 l -0.5948,1.6126 z m -17.655,-4.884 15.7336,-0.053 c 0.336,-2.2975 -0.1953,-4.9794 -1.5082,-7.5508 -1.4159,-2.7735 -3.7361,-5.3813 -6.863,-7.2436 -3.6876,2.0462 -5.6029,4.8159 -6.5375,7.6605 -0.7946,2.4201 -0.924,4.953 -0.8249,7.1869 z" />
        <path
           id="path28"
           style="fill:#ffffff;fill-rule:evenodd"
           d="m 641.9099,566.9489 -17.3241,0.0576 c -0.5288,-5.0664 -0.5169,-13.2674 8.4265,-17.4847 7.5297,3.8434 10.8858,12.0327 8.8976,17.4271 z" />
        <path
           id="path30"
           style="fill:#000200;fill-rule:evenodd"
           d="m 641.9097,569.4205 -17.3243,0.0575 -2.2301,0.007 -0.2316,-2.2263 c -0.2898,-2.7826 -0.426,-6.4422 0.7681,-10.0784 1.2449,-3.7898 3.8648,-7.4441 9.0644,-9.8968 l 1.1041,-0.5214 1.0768,0.5502 c 4.1099,2.0977 7.1331,5.3464 8.9145,8.8358 1.9986,3.9154 2.4557,8.2031 1.1843,11.6539 l -0.5948,1.6127 z m -15.0207,-4.8931 13.063,-0.0432 c 0.1998,-1.8623 -0.2611,-4.013 -1.3198,-6.0873 -1.1805,-2.3126 -3.0958,-4.4897 -5.668,-6.063 -3.0126,1.7223 -4.5874,4.0206 -5.3624,6.3779 -0.6394,1.9463 -0.7718,3.985 -0.7128,5.8156 z" />
        <path
           id="path32"
           style="fill:#ffffff;fill-rule:evenodd"
           d="m 588.3883,459.1591 -19.0722,17.7252 c -1.8557,-23.8012 -1.9737,-53.4376 3.4457,-57.705 4.4365,-3.4932 3.8983,-10.4658 11.0575,-10.5948 3.5099,2.9223 -2.5608,10.7184 0.1561,12.6073 6.1583,4.2826 4.2878,22.1941 4.4129,37.9673 z" />
        <path
           id="path34"
           style="fill:#000200;fill-rule:evenodd"
           d="m 590.0785,460.9754 -19.0724,17.7253 -3.7671,3.5007 -0.3995,-5.1322 c -1.0338,-13.2651 -1.5302,-28.3607 -0.8385,-39.9526 0.5903,-9.896 2.1809,-17.4915 5.2261,-19.8896 1.2698,-0.9997 2.1068,-2.5639 2.9157,-4.0766 1.9048,-3.5628 3.7104,-6.9364 9.638,-7.0431 l 0.9134,-0.0159 0.7083,0.5888 c 3.1345,2.61 2.0243,6.3938 1.0118,9.8438 -0.4246,1.4454 -1.2259,2.4851 -1.0209,2.6274 6.001,4.1727 5.7854,16.9474 5.5568,30.4107 -0.0537,3.2033 -0.1089,6.449 -0.0847,9.5774 l 0.008,1.0965 z m -18.6539,10.5627 14.4819,-13.4588 c -0.007,-2.8522 0.0416,-5.7399 0.0901,-8.5944 0.205,-12.1011 0.3995,-23.5833 -3.4395,-26.2531 -2.7265,-1.8964 -1.8548,-4.8674 -0.9028,-8.1063 0.417,-1.4212 0.8635,-2.943 0.84,-3.8723 -2.0281,0.5774 -2.9823,2.3611 -3.9805,4.228 -1.0587,1.9804 -2.1537,4.0266 -4.2173,5.6506 -1.7867,1.4068 -2.831,7.7166 -3.3418,16.2769 -0.588,9.8635 -0.2906,22.4028 0.4699,34.1294 z" />
        <path
           id="path36"
           style="fill:#ffffff;fill-rule:evenodd"
           d="m 597.0546,457.6502 -24.6163,4.946 c -1.8557,-23.8012 1.5138,-39.0251 5.6556,-42.5274 2.8383,-2.4003 0.5866,-9.3775 6.1955,-10.9931 5.1063,2.9222 3.7649,8.9386 6.4815,10.8275 6.1583,4.2822 6.1586,21.9739 6.2837,37.747 z" />
        <path
           id="path38"
           style="fill:#000200;fill-rule:evenodd"
           d="m 597.5408,460.0786 -24.6163,4.9462 -2.7447,0.5516 -0.218,-2.7954 c -0.8695,-11.1552 -0.6024,-20.4981 0.3542,-27.6917 1.1722,-8.8214 3.5098,-14.6613 6.175,-16.9149 0.4662,-0.3942 0.7076,-1.6746 0.9604,-3.0239 0.6364,-3.3978 1.3243,-7.0628 6.1576,-8.4552 l 1.0133,-0.2913 0.9005,0.5146 c 3.8587,2.2082 4.7925,5.4902 5.5962,8.3166 0.3542,1.2449 0.6682,2.3482 1.07,2.6275 7.0696,4.9166 7.2096,22.6078 7.3344,38.7266 l 0.008,1.0413 0.0159,2.0455 z m -22.8213,-0.4669 19.8427,-3.9865 c -0.1158,-14.6068 -0.3466,-30.3002 -5.2095,-33.6821 -1.8585,-1.2933 -2.4026,-3.1981 -3.0133,-5.3472 -0.4526,-1.5922 -0.9672,-3.3963 -2.3172,-4.6525 -1.0859,0.8763 -1.4,2.5479 -1.6944,4.1197 -0.42,2.2423 -0.8195,4.3672 -2.6312,5.8996 -1.7889,1.5128 -3.4644,6.2303 -4.4663,13.7683 -0.8324,6.2561 -1.1102,14.2889 -0.5108,23.8807 z" />
        <path
           id="path40"
           style="fill:#ffffff;fill-rule:evenodd"
           d="m 594.6541,493.105 -27.0016,17.5047 c -2.3251,-23.5051 -2.4763,-52.7737 4.3132,-56.9872 5.5578,-3.4495 7.9941,-10.3357 16.9639,-10.4631 4.3976,2.8859 -3.2084,10.5851 0.1956,12.4505 7.7157,4.2294 5.3722,21.9181 5.5289,37.4951 z" />
        <path
           id="path42"
           style="fill:#000200;fill-rule:evenodd"
           d="m 596.0008,495.1789 -27.0016,17.5051 -3.4091,2.2105 -0.3996,-4.0426 c -1.3008,-13.1583 -1.9274,-28.1094 -1.0617,-39.5575 0.7446,-9.8529 2.7326,-17.406 6.5315,-19.77 l -0.003,-0.005 c 1.5982,-0.9921 2.9861,-2.3974 4.3778,-3.8072 3.4008,-3.4455 6.8379,-6.925 13.8659,-7.0249 l 0.7635,-0.0106 0.6221,0.4079 c 4.007,2.6305 2.554,6.5315 1.2282,10.0875 -0.4715,1.266 -1.4908,2.106 -1.198,2.2664 7.4775,4.0993 7.2035,16.8067 6.9152,30.2004 -0.0681,3.1609 -0.1377,6.3642 -0.1067,9.4457 l 0.0136,1.3561 z m -26.2607,11.1303 22.4346,-14.5447 c -0.005,-2.7326 0.0552,-5.4933 0.1142,-8.2221 0.2558,-11.8545 0.4972,-23.1005 -4.3558,-25.7612 -3.4516,-1.8919 -2.3028,-4.9734 -1.0511,-8.3341 0.5297,-1.4212 1.0995,-2.9513 0.9572,-3.7527 -4.2862,0.4336 -6.7933,2.9725 -9.2762,5.4872 -1.6111,1.6323 -3.2169,3.2585 -5.2889,4.5442 h -0.01 c -2.2529,1.3977 -3.5598,7.5721 -4.1924,15.9364 -0.7583,10.0284 -0.3436,22.8235 0.6682,34.647 z" />
        <path
           id="path44"
           style="fill:#ffffff;fill-rule:evenodd"
           d="m 605.5121,491.6149 -30.8418,4.8845 c -2.325,-23.5052 0.1617,-38.5398 5.3507,-41.9985 3.5561,-2.3701 2.4701,-9.2609 9.4976,-10.8564 6.3977,2.8859 4.717,8.8274 8.1207,10.6928 7.7157,4.229 7.7161,21.7006 7.8728,37.2776 z" />
        <path
           id="path46"
           style="fill:#000200;fill-rule:evenodd"
           d="m 605.8998,494.0567 -30.842,4.8848 -2.5912,0.4109 -0.258,-2.6108 c -1.1472,-11.6025 -1.1359,-21.2147 -0.2134,-28.4583 1.0473,-8.2183 3.3834,-13.6638 6.6594,-15.8471 l 0.002,0.002 c 0.7583,-0.5153 1.2993,-1.7814 1.8737,-3.1314 1.3826,-3.2465 2.9044,-6.8176 8.4461,-8.076 l 0.8089,-0.1832 0.7515,0.3383 c 4.6805,2.1113 5.858,5.3714 6.8705,8.1804 0.4336,1.2018 0.8188,2.268 1.4242,2.5995 8.8124,4.8296 8.9857,22.4043 9.1431,38.4095 l 0.01,1.0194 0.0204,2.1287 z m -29.0092,-0.4125 26.129,-4.1379 c -0.1445,-14.3086 -0.4487,-29.6426 -6.5723,-32.998 -2.2294,-1.2214 -2.9181,-3.1269 -3.693,-5.2753 -0.6137,-1.7027 -1.3175,-3.6528 -3.4977,-4.9393 -2.4428,0.896 -3.3448,3.0126 -4.1712,4.9522 -0.8748,2.0553 -1.6966,3.982 -3.6876,5.3093 l -0.01,0.01 c -2.0592,1.3719 -3.6317,5.606 -4.4891,12.3387 -0.8074,6.3431 -0.8725,14.6795 -0.008,24.7404 z" />
        <path
           id="path48"
           style="fill:#ffffff;fill-rule:evenodd"
           d="m 567.6525,536.5585 79.0819,3.9434 v -24.6497 l -3.0193,4.1089 -76.0626,-9.3514 z" />
        <path
           id="path50"
           style="fill:#000200;fill-rule:evenodd"
           d="m 570.1328,534.2052 74.1213,3.696 v -15.3757 l -0.8392,-0.1029 -73.2821,-9.0091 z m 76.4854,8.7685 -79.0825,-3.9435 -2.3641,-0.118 v -2.3535 -25.9489 -2.803 l 2.781,0.3413 74.6291,9.1748 2.1567,-2.9347 4.4769,-6.0926 v 7.5562 24.6503 2.601 z" />
        <path
           id="path52"
           style="fill:#ffffff;fill-rule:evenodd"
           d="m 610.6443,521.5055 c 14.5829,1.583 26.1109,5.6075 25.7439,8.9878 -0.367,3.3803 -12.4905,4.838 -27.0726,3.255 -14.5828,-1.583 -26.1109,-5.6083 -25.7439,-8.9886 0.367,-3.3803 12.4905,-4.838 27.0726,-3.2542 z" />
        <path
           id="path54"
           style="fill:#000200;fill-rule:evenodd"
           d="m 610.9019,519.043 0.005,7e-4 h 0.001 c 7.4759,0.8113 14.2026,2.2605 19.0292,3.9457 5.8065,2.0266 9.2376,4.7774 8.913,7.7658 -0.3247,2.9982 -4.2689,4.9544 -10.3766,5.6885 -5.0202,0.6031 -11.8242,0.5789 -19.2373,-0.2142 h -0.004 l -0.1808,-0.0197 c -7.476,-0.8112 -14.2035,-2.2611 -19.0292,-3.9457 -5.8066,-2.0273 -9.2369,-4.7773 -8.9123,-7.7665 0.3247,-2.9982 4.2681,-4.9536 10.3751,-5.6884 5.0596,-0.6077 11.9331,-0.5782 19.4166,0.2338 z m 17.4068,8.6186 c -4.4512,-1.5536 -10.7149,-2.9006 -17.7443,-3.6748 h -0.0953 l -0.1794,-0.0302 c -7.0612,-0.7606 -13.5072,-0.7908 -18.2233,-0.224 -3.6876,0.4434 -5.9919,0.9088 -6.0328,1.2887 -0.0423,0.3905 2.1083,1.3455 5.6174,2.5707 4.4512,1.5536 10.714,2.9006 17.7442,3.6748 h 8e-4 l 0.1816,0.0196 c 7.0968,0.7704 13.5783,0.8037 18.3148,0.2339 3.6884,-0.4427 5.9935,-0.9089 6.0344,-1.2888 0.0423,-0.3897 -2.1091,-1.3455 -5.6181,-2.5699 z" />
        <path
           id="path56"
           style="fill:#ffffff;fill-rule:evenodd"
           d="m 625.3161,517.2042 -55.7832,-6.8581 c 1.124,-29.5615 37.0751,-14.4226 36.905,-23.2797 0.7271,13.0249 21.51,4.8603 18.8782,30.1378 z" />
        <path
           id="path58"
           style="fill:#000200;fill-rule:evenodd"
           d="m 625.0153,519.6658 -55.783,-6.8577 -2.2581,-0.2769 0.087,-2.2718 c 0.8143,-21.416 17.4423,-21.8965 29.0607,-22.2318 4.4534,-0.1278 7.8573,-0.2277 7.8444,-0.9224 l 4.9431,-0.1741 c 0.2164,3.8753 3.2404,5.357 6.5807,6.9931 6.558,3.2124 14.0218,6.8706 12.2873,23.5319 l -0.2626,2.5169 z m -52.8347,-11.4927 50.855,6.2522 c 0.4193,-11.0939 -4.9552,-13.7304 -9.7159,-16.062 -3.3357,-1.6338 -6.4475,-3.1587 -8.1138,-6.3098 -2.2635,0.7243 -5.4002,0.8151 -8.9478,0.9172 -9.2566,0.2672 -22.3181,0.6448 -24.0775,15.2024 z" />
        <path
           id="path60"
           style="fill:#ffffff;fill-rule:evenodd"
           d="m 634.6636,518.8482 -55.7832,-6.8581 c 0.1759,-21.3287 29.2423,-11.4777 29.0722,-20.3348 9.0642,9.0646 31.6775,0.8065 26.711,27.1929 z" />
        <path
           id="path62"
           style="fill:#000200;fill-rule:evenodd"
           d="m 634.3634,521.3102 -55.7837,-6.8584 -2.1901,-0.2686 0.019,-2.2128 c 0.1248,-15.1077 12.0951,-16.7158 21.425,-17.9682 4.2204,-0.5668 7.6719,-1.0315 7.6477,-2.3081 l -0.118,-6.1357 4.3437,4.343 c 2.5344,2.5343 6.7048,3.5491 10.8586,4.5594 10.1715,2.4738 20.2771,4.9332 16.5304,24.8433 l -0.4313,2.2884 z m -52.8468,-11.495 51.0798,6.2803 c 1.6928,-13.2046 -5.7263,-15.0124 -13.1932,-16.8279 -3.6361,-0.8838 -7.2829,-1.7715 -10.3538,-3.6369 -2.0061,2.1272 -5.995,2.6622 -10.5574,3.2752 -6.9296,0.9293 -15.6776,2.106 -16.9754,10.9093 z" />
        <path
           id="path64"
           style="fill:#ffffff;fill-rule:evenodd"
           d="m 565.7932,566.6262 -87.5853,-0.4119 v -29.4102 l 3.1354,4.0789 84.4499,-5.5601 z" />
        <path
           id="path66"
           style="fill:#000200;fill-rule:evenodd"
           d="m 565.783,569.0724 -87.5853,-0.4117 -2.4708,-0.0121 v -2.4344 -29.4103 -7.2731 l 4.4482,5.7861 2.3315,3.0323 83.1311,-5.4728 2.6358,-0.1741 v 2.6206 31.3029 2.458 z m -85.0948,-5.2935 82.6241,0.389 v -26.2251 l -81.8137,5.3865 -0.8104,0.053 z" />
        <path
           id="path68"
           style="fill:#ffffff;fill-rule:evenodd"
           d="m 534.2528,566.4776 27.1878,0.1278 c 0.6427,-7.3754 -1.1466,-20.9442 -13.9529,-25.4707 -9.9585,4.3048 -14.1999,17.4901 -13.2349,25.3429 z" />
        <path
           id="path70"
           style="fill:#000200;fill-rule:evenodd"
           d="m 536.596,564.0173 22.477,0.1052 c 0.0249,-3.7625 -0.6501,-8.496 -2.9022,-12.6074 -1.7382,-3.1738 -4.4572,-5.9942 -8.5891,-7.6939 -3.4629,1.7814 -6.0971,4.8742 -7.9186,8.3628 -2.0372,3.9018 -3.0459,8.2478 -3.0671,11.8333 z m 24.835,5.0596 -27.1877,-0.1278 -2.1855,-0.0106 -0.2664,-2.1606 c -0.5834,-4.7501 0.5486,-11.2445 3.4916,-16.8808 2.4496,-4.6918 6.1698,-8.8448 11.2264,-11.0303 l 0.8968,-0.3882 0.9058,0.3208 c 5.9571,2.1053 9.7976,5.964 12.201,10.3516 3.2987,6.0222 3.805,13.0047 3.3994,17.6678 l -0.1983,2.2687 z" />
        <path
           id="path72"
           style="fill:#ffffff;fill-rule:evenodd"
           d="m 512.2819,566.5217 19.9459,0.0664 c 0.6088,-5.8332 0.5951,-15.2752 -9.7018,-20.1308 -8.6692,4.4251 -12.5333,13.8537 -10.2441,20.0644 z" />
        <path
           id="path74"
           style="fill:#000200;fill-rule:evenodd"
           d="m 514.2031,564.0559 15.7335,0.053 c 0.0991,-2.2339 -0.0303,-4.7668 -0.8248,-7.1869 -0.9346,-2.8446 -2.85,-5.6143 -6.5376,-7.6605 -3.1269,1.8623 -5.4471,4.4701 -6.8629,7.2436 -1.313,2.5714 -1.8442,5.2533 -1.5082,7.5508 z m 18.025,5.0036 -19.9464,-0.0666 -1.7315,-0.006 -0.5948,-1.6126 c -1.4257,-3.8678 -0.9028,-8.6951 1.3561,-13.1183 2.0205,-3.957 5.4418,-7.6356 10.0897,-10.0087 l 1.0769,-0.5502 1.1041,0.5214 c 5.8762,2.7712 8.835,6.8963 10.2396,11.1719 1.353,4.1212 1.1979,8.2849 0.868,11.4496 l -0.2316,2.2263 z" />
        <path
           id="path76"
           style="fill:#ffffff;fill-rule:evenodd"
           d="m 491.9477,566.9489 17.3241,0.0576 c 0.5288,-5.0664 0.5169,-13.2674 -8.4265,-17.4847 -7.5297,3.8434 -10.8859,12.0327 -8.8976,17.4271 z" />
        <path
           id="path78"
           style="fill:#000200;fill-rule:evenodd"
           d="m 493.9055,564.4842 13.063,0.0432 c 0.0591,-1.8306 -0.0734,-3.8693 -0.7128,-5.8156 -0.7749,-2.3581 -2.3497,-4.6556 -5.3623,-6.3779 -2.5783,1.5755 -4.4959,3.7504 -5.6757,6.0593 l 0.008,0.004 c -1.0587,2.0743 -1.5195,4.225 -1.3198,6.0873 z m 15.3666,4.9938 -17.3243,-0.0575 -1.7314,-0.006 -0.5948,-1.6127 c -1.2714,-3.4508 -0.8143,-7.7385 1.1843,-11.6539 h 0.01 c 1.7844,-3.4947 4.8046,-6.7426 8.9055,-8.8358 l 1.0768,-0.5502 1.1041,0.5214 c 5.1996,2.4527 7.8187,6.107 9.0636,9.8968 1.1941,3.6362 1.0579,7.2958 0.7681,10.0784 l -0.2316,2.2263 z" />
        <path
           id="path80"
           style="fill:#ffffff;fill-rule:evenodd"
           d="m 545.4693,459.1591 19.0721,17.7252 c 1.8558,-23.8012 1.9737,-53.4376 -3.4456,-57.705 -4.4366,-3.4932 -3.8983,-10.4658 -11.0576,-10.5948 -3.5099,2.9223 2.5609,10.7184 -0.156,12.6073 -6.1583,4.2826 -4.2879,22.1941 -4.4129,37.9673 z" />
        <path
           id="path82"
           style="fill:#000200;fill-rule:evenodd"
           d="m 547.9518,458.0793 14.4811,13.4588 c 0.7613,-11.7258 1.058,-24.2636 0.47,-34.1279 -0.5108,-8.5611 -1.5552,-14.8716 -3.3418,-16.2784 -2.0637,-1.624 -3.1587,-3.6702 -4.2174,-5.6506 -0.9982,-1.8669 -1.9524,-3.6506 -3.9805,-4.228 -0.0235,0.9293 0.423,2.4511 0.84,3.8723 0.952,3.2389 1.8245,6.2099 -0.9028,8.1063 -3.8398,2.6698 -3.6445,14.1535 -3.4387,26.2554 0.0485,2.8537 0.0969,5.7414 0.0901,8.5921 z m 14.8996,20.6214 -19.0716,-17.7253 -0.7953,-0.7394 0.008,-1.0965 c 0.0242,-3.1261 -0.031,-6.3726 -0.0848,-9.5751 -0.2292,-13.4641 -0.4464,-26.2388 5.5561,-30.413 0.2058,-0.143 -0.5963,-1.182 -1.0209,-2.6274 -1.0125,-3.45 -2.1226,-7.2338 1.0118,-9.8438 l 0.7076,-0.5888 0.9141,0.0159 c 5.9284,0.1067 7.7332,3.4803 9.638,7.0431 0.8089,1.5127 1.6459,3.0769 2.9157,4.0766 3.0452,2.3981 4.6359,9.9944 5.2261,19.8911 0.6917,11.5927 0.196,26.6868 -0.8384,39.9511 l -0.4011,5.1322 z" />
        <path
           id="path84"
           style="fill:#ffffff;fill-rule:evenodd"
           d="m 536.803,457.6502 24.6163,4.946 c 1.8557,-23.8012 -1.5138,-39.0251 -5.6557,-42.5274 -2.8382,-2.4003 -0.5865,-9.3775 -6.1954,-10.9931 -5.1063,2.9222 -3.7649,8.9386 -6.4815,10.8275 -6.1583,4.2822 -6.1586,21.9739 -6.2837,37.747 z" />
        <path
           id="path86"
           style="fill:#000200;fill-rule:evenodd"
           d="m 539.2961,455.6252 19.8427,3.9865 c 0.5993,-9.5918 0.3209,-17.6254 -0.5116,-23.8807 -1.0019,-7.538 -2.6773,-12.2555 -4.4663,-13.7683 -1.8117,-1.5324 -2.2112,-3.6573 -2.6312,-5.8996 -0.2944,-1.5718 -0.6084,-3.2434 -1.6951,-4.1205 -1.3508,1.257 -1.8639,3.0611 -2.3164,4.6533 -0.6107,2.1491 -1.1548,4.0539 -3.0134,5.3472 -4.8629,3.3819 -5.0937,19.0753 -5.2087,33.6821 z m 21.6377,9.3996 -24.6163,-4.9462 -2.0069,-0.4033 0.0159,-2.0447 0.008,-1.0353 c 0.1241,-16.121 0.2634,-33.8153 7.3337,-38.7326 0.4018,-0.2793 0.7159,-1.3826 1.07,-2.6275 0.8037,-2.8264 1.7375,-6.1084 5.5962,-8.3166 l 0.8998,-0.5146 1.014,0.2913 c 4.8334,1.3924 5.5212,5.0581 6.1577,8.4552 0.2527,1.3493 0.4941,2.6297 0.9603,3.0239 2.6653,2.2536 5.0029,8.0935 6.1751,16.9149 0.9565,7.1929 1.2244,16.5365 0.3549,27.6917 l -0.2187,2.7954 z" />
        <path
           id="path88"
           style="fill:#ffffff;fill-rule:evenodd"
           d="m 539.2035,493.105 27.0016,17.5047 c 2.325,-23.5051 2.4763,-52.7737 -4.3133,-56.9872 -5.5577,-3.4495 -7.994,-10.3357 -16.9639,-10.4631 -4.3975,2.8859 3.2085,10.5851 -0.1955,12.4505 -7.7157,4.2294 -5.3722,21.9181 -5.5289,37.4951 z" />
        <path
           id="path90"
           style="fill:#000200;fill-rule:evenodd"
           d="m 541.6829,491.7645 22.4345,14.5447 c 1.0118,-11.8235 1.4265,-24.6186 0.6683,-34.647 -0.6327,-8.3643 -1.9396,-14.5387 -4.1924,-15.9364 h -0.01 c -2.072,-1.2857 -3.6778,-2.9119 -5.2889,-4.5442 -2.4829,-2.5147 -4.99,-5.0536 -9.2762,-5.4872 -0.1423,0.8014 0.4275,2.3315 0.9573,3.7527 1.2516,3.3607 2.3996,6.4429 -1.0512,8.3341 -4.853,2.6607 -4.6116,13.9067 -4.3558,25.7612 0.059,2.7288 0.1188,5.4895 0.1143,8.2221 z m 23.1754,20.9195 -27.0016,-17.5051 -1.1381,-0.7378 0.0136,-1.3561 c 0.031,-3.0815 -0.0386,-6.2848 -0.1067,-9.4457 -0.2883,-13.3937 -0.5622,-26.1011 6.9152,-30.2004 0.2928,-0.1604 -0.7265,-1.0004 -1.1979,-2.2664 -1.3259,-3.556 -2.7788,-7.457 1.2282,-10.0875 l 0.622,-0.4079 0.7636,0.0106 c 7.0279,0.0999 10.465,3.5794 13.8659,7.0249 1.3916,1.4098 2.7795,2.8151 4.3778,3.8072 l -0.003,0.005 c 3.7989,2.364 5.7869,9.9171 6.5315,19.77 0.8658,11.4481 0.2392,26.3992 -1.0617,39.5575 l -0.4003,4.0426 z" />
        <path
           id="path92"
           style="fill:#ffffff;fill-rule:evenodd"
           d="m 528.3455,491.6149 30.8418,4.8845 c 2.325,-23.5052 -0.1617,-38.5398 -5.3507,-41.9985 -3.5561,-2.3701 -2.4702,-9.2609 -9.4976,-10.8564 -6.3977,2.8859 -4.7171,8.8274 -8.1207,10.6928 -7.7157,4.229 -7.7161,21.7006 -7.8728,37.2776 z" />
        <path
           id="path94"
           style="fill:#000200;fill-rule:evenodd"
           d="m 530.8379,489.5063 26.129,4.1379 c 0.8642,-10.0609 0.7991,-18.3973 -0.008,-24.7404 -0.8574,-6.7327 -2.4299,-10.9668 -4.489,-12.3387 l -0.01,-0.01 c -1.991,-1.3273 -2.8128,-3.254 -3.6876,-5.3093 -0.8264,-1.9396 -1.7284,-4.0562 -4.1712,-4.9522 -2.1802,1.2865 -2.884,3.2366 -3.4977,4.9393 -0.7749,2.1484 -1.4636,4.0539 -3.6929,5.2753 -6.1236,3.3554 -6.4279,18.6894 -6.5724,32.998 z m 27.9619,9.4352 -30.8421,-4.8848 -2.1045,-0.333 0.0204,-2.1287 0.01,-1.0194 c 0.1574,-16.0052 0.3307,-33.5799 9.143,-38.4095 0.6054,-0.3315 0.9906,-1.3977 1.4242,-2.5995 1.0125,-2.809 2.19,-6.0691 6.8705,-8.1804 l 0.7515,-0.3383 0.8089,0.1832 c 5.5417,1.2584 7.0635,4.8295 8.4461,8.076 0.5744,1.35 1.1147,2.6161 1.8737,3.1314 l 10e-4,-0.002 c 3.276,2.1833 5.6121,7.6288 6.6594,15.8471 0.9225,7.2436 0.9339,16.8558 -0.2134,28.4583 l -0.2588,2.6108 z" />
        <path
           id="path96"
           style="fill:#ffffff;fill-rule:evenodd"
           d="m 566.2051,536.5585 -79.0819,3.9434 v -24.6497 l 3.0193,4.1089 76.0626,-9.3514 z" />
        <path
           id="path98"
           style="fill:#000200;fill-rule:evenodd"
           d="m 566.3219,539.0302 -79.0818,3.9435 -2.5972,0.1294 v -2.601 -24.6503 -7.5577 l 4.477,6.0941 2.1559,2.9347 74.6291,-9.1748 2.781,-0.3413 v 2.803 25.9489 2.3535 z m -76.7177,-1.129 74.1205,-3.696 v -20.7917 l -73.282,9.0091 -0.8385,0.1029 z" />
        <path
           id="path100"
           style="fill:#ffffff;fill-rule:evenodd"
           d="m 523.2132,521.5055 c -14.5829,1.583 -26.1109,5.6075 -25.7439,8.9878 0.367,3.3803 12.4905,4.838 27.0726,3.255 14.5828,-1.583 26.1109,-5.6083 25.7439,-8.9886 -0.367,-3.3803 -12.4905,-4.838 -27.0726,-3.2542 z" />
        <path
           id="path102"
           style="fill:#000200;fill-rule:evenodd"
           d="m 522.9496,519.0437 h 10e-4 l 0.005,-7e-4 c 7.4835,-0.812 14.357,-0.8415 19.4167,-0.2338 6.1069,0.7348 10.0503,2.6902 10.375,5.6884 0.3246,2.9899 -3.1057,5.7392 -8.9122,7.7665 -4.8258,1.6846 -11.5533,3.1345 -19.0292,3.9457 l -0.1809,0.0197 h -0.004 c -7.4131,0.7931 -14.217,0.8173 -19.2373,0.2142 -6.1077,-0.7341 -10.0519,-2.6903 -10.3765,-5.6885 -0.3247,-2.9884 3.1064,-5.7392 8.913,-7.7658 4.8265,-1.6852 11.5532,-3.1344 19.0292,-3.9457 z m 0.3435,4.9431 c -7.0294,0.7742 -13.293,2.1212 -17.7442,3.6748 -3.5091,1.2244 -5.6605,2.1802 -5.6181,2.5699 0.0408,0.3799 2.3459,0.8461 6.0343,1.2888 4.7365,0.5698 11.218,0.5365 18.3148,-0.2339 l 0.1816,-0.0196 h 8e-4 c 7.0302,-0.7742 13.293,-2.1212 17.7442,-3.6748 3.5098,-1.2252 5.6598,-2.1802 5.6174,-2.5707 -0.0409,-0.3799 -2.3444,-0.8453 -6.0328,-1.2887 -4.7161,-0.5668 -11.1621,-0.5366 -18.2233,0.224 l -0.1793,0.0302 z" />
        <path
           id="path104"
           style="fill:#ffffff;fill-rule:evenodd"
           d="m 508.5415,517.2042 55.7832,-6.8581 c -1.1241,-29.5615 -37.0751,-14.4226 -36.905,-23.2797 -0.7271,13.0249 -21.51,4.8603 -18.8782,30.1378 z" />
        <path
           id="path106"
           style="fill:#000200;fill-rule:evenodd"
           d="m 510.8219,514.4253 50.855,-6.2522 c -1.7587,-14.5576 -14.8201,-14.9352 -24.0774,-15.2024 -3.5477,-0.1021 -6.6844,-0.1929 -8.9478,-0.9172 -1.6664,3.1511 -4.7782,4.676 -8.1139,6.3098 -4.7607,2.3316 -10.1351,4.9681 -9.7159,16.062 z m 53.8033,-1.6172 -55.783,6.8577 -2.4995,0.3072 -0.2626,-2.5169 c -1.7345,-16.6613 5.7294,-20.3195 12.2873,-23.5319 3.3403,-1.6361 6.3643,-3.1178 6.5807,-6.9931 l 4.9431,0.1741 c -0.0129,0.6947 3.391,0.7946 7.8445,0.9224 11.6191,0.3353 28.2471,0.8158 29.0606,22.2318 l 0.0863,2.2718 z" />
        <path
           id="path108"
           style="fill:#ffffff;fill-rule:evenodd"
           d="m 499.194,518.8482 55.7832,-6.8581 c -0.1759,-21.3287 -29.2424,-11.4777 -29.0722,-20.3348 -9.0642,9.0646 -31.6775,0.8065 -26.711,27.1929 z" />
        <path
           id="path110"
           style="fill:#000200;fill-rule:evenodd"
           d="m 501.2611,516.0955 51.0798,-6.2803 c -1.2978,-8.8033 -10.0458,-9.98 -16.9754,-10.9093 -4.5624,-0.613 -8.5512,-1.148 -10.5574,-3.2752 -3.0709,1.8654 -6.7176,2.7531 -10.3538,3.6369 -7.4668,1.8155 -14.886,3.6233 -13.1932,16.8279 z m 54.0168,-1.6437 -55.7838,6.8584 -2.3012,0.2823 -0.4314,-2.2884 c -3.7467,-19.9101 6.359,-22.3695 16.5304,-24.8433 4.1538,-1.0103 8.3243,-2.0251 10.8586,-4.5594 l 4.3438,-4.343 -0.1181,6.1357 c -0.0242,1.2766 3.4273,1.7413 7.6477,2.3081 9.33,1.2524 21.3002,2.8605 21.4251,17.9682 l 0.0181,2.2128 z" />
        <path
           id="path112"
           style="fill:#ffffff;fill-rule:evenodd"
           d="m 558.7784,211.915 h 16.3007 v 6.2764 h -16.3007 z" />
        <path
           id="path114"
           style="fill:#000200;fill-rule:evenodd"
           d="m 558.7786,209.4344 h 16.3003 2.4807 v 2.4806 6.2765 2.4806 h -2.4807 -16.3003 -2.4806 v -2.4806 -6.2765 -2.4806 z m 13.8197,4.9612 h -11.3391 v 1.3153 h 11.3391 z" />
        <path
           id="path116"
           style="fill:#ffffff;fill-rule:evenodd"
           d="m 558.8918,202.8352 h 16.0739 c 1.8855,0 3.4277,1.8017 3.4277,4.0038 v 1.2901 c 0,2.2029 -1.5422,4.0046 -3.4277,4.0046 h -16.0739 c -1.8855,0 -3.4277,-1.8017 -3.4277,-4.0046 v -1.2901 c 0,-2.2021 1.5422,-4.0038 3.4277,-4.0038 z" />
        <path
           id="path118"
           style="fill:#000200;fill-rule:evenodd"
           d="m 558.8921,200.3428 h 16.0733 c 1.702,0 3.2261,0.787 4.3097,2.0523 0.9929,1.1586 1.6111,2.7349 1.6111,4.4436 v 1.2903 c 0,1.7087 -0.6175,3.285 -1.6111,4.4451 -1.0836,1.2653 -2.6077,2.0523 -4.3097,2.0523 h -16.0733 c -1.7019,0 -3.226,-0.7862 -4.3097,-2.0523 -0.9936,-1.1601 -1.6111,-2.7364 -1.6111,-4.4451 v -1.2903 c 0,-1.7087 0.6183,-3.285 1.6111,-4.4436 1.0837,-1.266 2.6078,-2.0523 4.3097,-2.0523 z m 16.0733,4.9855 h -16.0733 c -0.1831,0 -0.3746,0.1158 -0.532,0.2996 -0.2482,0.2899 -0.4033,0.7174 -0.4033,1.2108 v 1.2903 c 0,0.4942 0.1551,0.9225 0.4033,1.2123 0.1574,0.1839 0.3489,0.2997 0.532,0.2997 h 16.0733 c 0.1832,0 0.3739,-0.115 0.532,-0.2997 0.2482,-0.2898 0.4034,-0.7181 0.4034,-1.2123 v -1.2903 c 0,-0.4934 -0.1552,-0.9209 -0.4034,-1.2108 -0.1581,-0.1846 -0.3488,-0.2996 -0.532,-0.2996 z" />
        <path
           id="path120"
           style="fill:#ffffff;fill-rule:evenodd"
           d="M 574.9656,202.8349 H 558.892 c 1.0732,-17.062 14.488,-15.7946 16.0736,0 z" />
        <path
           id="path122"
           style="fill:#000200;fill-rule:evenodd"
           d="m 574.9654,205.3154 h -16.0733 -2.638 l 0.1665,-2.6357 c 0.4109,-6.5338 2.5684,-10.8216 5.3244,-12.9533 1.4621,-1.1306 3.0974,-1.6876 4.7728,-1.6891 1.6445,-10e-4 3.2768,0.5373 4.7653,1.596 3.0073,2.1401 5.5008,6.5466 6.144,12.9593 l 0.2725,2.7228 z m -13.3119,-4.9612 h 10.4219 c -0.7348,-3.3343 -2.1015,-5.5795 -3.6604,-6.6889 -0.6379,-0.4533 -1.2887,-0.6857 -1.8972,-0.6849 -0.5774,8e-4 -1.1759,0.2187 -1.7488,0.6614 -1.3932,1.0769 -2.5571,3.2805 -3.1155,6.7124 z" />
        <path
           id="path124"
           style="fill:#ffffff;fill-rule:evenodd"
           d="M 467.8372,567.3849 H 666.021 v 8.6676 H 467.8372 Z" />
        <path
           id="path126"
           style="fill:#000200;fill-rule:evenodd"
           d="m 467.8371,564.9035 h 198.1841 2.4814 v 2.4814 8.6678 2.4813 h -2.4814 -198.1841 -2.4814 v -2.4813 -8.6678 -2.4814 z m 195.7027,4.9627 H 470.3184 v 3.7051 h 193.2214 z" />
        <path
           id="path128"
           style="fill:#ffffff;fill-rule:evenodd"
           d="m 456.8593,575.4742 h 220.1396 v 8.6668 H 456.8593 Z" />
        <path
           id="path130"
           style="fill:#000200;fill-rule:evenodd"
           d="m 456.8597,572.9931 h 220.1389 2.4814 v 2.4814 8.6663 2.4814 h -2.4814 -220.1389 -2.4814 v -2.4814 -8.6663 -2.4814 z m 217.6575,4.9628 H 459.341 v 3.7035 h 215.1762 z" />
        <path
           id="path132"
           style="fill:#ffffff;fill-rule:evenodd"
           d="m 444.7255,582.9443 h 244.4073 v 9.2859 H 444.7255 Z" />
        <path
           id="path134"
           style="fill:#000200;fill-rule:evenodd"
           d="m 444.7252,580.4592 h 244.4079 2.4851 v 2.4852 9.286 2.4852 H 689.1331 444.7252 442.24 v -2.4852 -9.286 -2.4852 z m 241.9227,4.9703 H 447.2104 v 4.3158 h 239.4375 z" />
        <path
           id="path136"
           style="fill:#ffffff;fill-rule:evenodd"
           d="m 430.8581,591.0394 h 272.1413 v 8.1248 H 430.8581 Z" />
        <path
           id="path138"
           style="fill:#000200;fill-rule:evenodd"
           d="m 430.8578,588.5587 h 272.1419 2.4807 v 2.4806 8.1252 2.4806 h -2.4807 -272.1419 -2.4806 v -2.4806 -8.1252 -2.4806 z m 269.6613,4.9612 H 433.3384 v 3.164 h 267.1807 z" />
        <path
           id="path140"
           style="fill:#ffffff;fill-rule:evenodd"
           d="m 416.4132,599.7418 h 301.0311 v 8.0893 H 416.4132 Z" />
        <path
           id="path142"
           style="fill:#000200;fill-rule:evenodd"
           d="m 416.413,597.2613 h 301.0316 2.4564 v 2.4806 8.0889 2.4806 h -2.4564 -301.0316 -2.4564 v -2.4806 -8.0889 -2.4806 z m 298.5752,4.9612 H 418.8694 v 3.1277 h 296.1188 z" />
      </g>
      <path
         id="path145"
         style="fill:#000200;fill-rule:evenodd"
         d="m 426.8865,510.7142 -0.6736,-4.251 15.633,-2.4759 c 2.4335,-0.3842 4.0052,-0.6836 4.7212,-0.9069 1.2461,-0.3879 2.1579,-0.9928 2.7441,-1.8111 0.5801,-0.817 0.7821,-1.8086 0.5988,-2.9649 -0.1547,-0.9829 -0.5327,-1.7463 -1.1202,-2.2927 -0.5887,-0.5401 -1.3421,-0.8569 -2.2527,-0.9454 -0.903,-0.0911 -2.7953,0.0923 -5.6729,0.5475 l -15.9685,2.5297 -0.6761,-4.2685 15.1628,-2.4011 c 3.8717,-0.6137 6.7032,-0.8719 8.4807,-0.7783 1.7874,0.0985 3.3154,0.7047 4.5902,1.8298 1.2798,1.1239 2.0818,2.7479 2.4161,4.8647 0.3493,2.2003 0.1784,3.9915 -0.5139,5.366 -0.686,1.3746 -1.7924,2.4648 -3.3105,3.2768 -1.518,0.8133 -4.438,1.5579 -8.7601,2.2427 z m 159.3607,-161.359 4.1525,0.3779 c -0.3892,3.7446 0.676,5.9099 3.1919,6.4912 1.2424,0.2869 2.3076,0.1422 3.1945,-0.4428 0.8893,-0.5763 1.4556,-1.4157 1.7101,-2.5171 0.1509,-0.6487 0.1546,-1.2274 0.0112,-1.7363 -0.1447,-0.5139 -0.4416,-0.9742 -0.8856,-1.3846 -0.4428,-0.4091 -1.5604,-1.1775 -3.3616,-2.3188 -1.6153,-1.0153 -2.7529,-1.9696 -3.3978,-2.8739 -0.6548,-0.8968 -1.0889,-1.9833 -1.3022,-3.2531 -0.2133,-1.2723 -0.1634,-2.5745 0.1434,-3.9067 0.358,-1.5516 0.9892,-2.8801 1.8923,-3.9827 0.9055,-1.0964 1.9758,-1.8424 3.2069,-2.229 1.2361,-0.3767 2.6493,-0.3867 4.2509,-0.0162 2.4012,0.5538 4.1025,1.7288 5.1029,3.5324 1.0091,1.7962 1.2299,4.0951 0.6661,6.8841 l -4.1823,-0.6997 c 0.1683,-1.5742 0.0261,-2.7317 -0.4366,-3.4814 -0.4578,-0.7409 -1.2461,-1.2436 -2.3538,-1.4993 -1.1076,-0.2557 -2.0281,-0.1896 -2.7479,0.2033 -0.7247,0.3917 -1.1787,0.978 -1.3621,1.7738 -0.1783,0.7758 -0.0548,1.4893 0.3668,2.1442 0.4203,0.6635 1.5404,1.5304 3.3491,2.6169 1.9159,1.17 3.2468,2.2377 3.9927,3.2057 0.7472,0.9691 1.2287,2.1142 1.4407,3.4202 0.2108,1.3122 0.1185,2.8215 -0.2756,4.5316 -0.5713,2.4722 -1.7176,4.3931 -3.434,5.7714 -1.7226,1.3759 -3.999,1.7376 -6.8292,1.084 -5.0068,-1.1551 -7.0438,-5.0555 -6.1033,-11.6951 z m 23.1258,16.6583 4.4081,-11.4856 -1.0976,-18.5492 4.6239,1.7749 0.4627,12.562 8.6728,-9.0557 4.5404,1.7438 -13.2755,13.0747 -4.3957,11.4481 z m 12.3512,6.0234 14.6127,-25.3111 3.6547,2.1105 -14.6127,25.3111 z m 22.3475,15.033 -3.7234,-2.7042 2.4199,-6.4513 -6.7694,-4.9183 -5.3012,4.357 -3.6397,-2.6444 23.7806,-18.8486 3.6273,2.6344 z m 0.4914,-13.9341 4.0439,-10.4677 -8.6715,7.1061 z m 0.8345,16.1793 21.024,-20.303 2.9312,3.036 -8.2724,7.9893 5.7678,5.9723 8.2724,-7.988 2.9437,3.0485 -21.0228,20.3018 -2.9437,-3.0486 9.1929,-8.8773 -5.7689,-5.9723 -9.193,8.8774 z m 18.5243,22.8015 25.3099,-14.6139 2.1105,3.6547 -11.2398,6.4887 15.5219,0.9293 2.8514,4.9382 -13.8081,-1.1475 -11.2934,16.1219 -2.7392,-4.7424 8.9934,-11.8598 -5.9486,-0.5313 -7.6487,4.4156 z m 37.2919,8.9509 1.3733,3.9903 -14.9644,5.1528 c -2.3288,0.802 -3.8269,1.3683 -4.4929,1.7101 -1.1626,0.595 -1.9559,1.3409 -2.3962,2.2352 -0.4341,0.8931 -0.4665,1.886 -0.0923,2.9724 0.3168,0.9231 0.8145,1.5954 1.4856,2.0195 0.6698,0.4179 1.4644,0.5912 2.3737,0.5164 0.9043,-0.0724 2.7354,-0.5825 5.4896,-1.5317 l 15.2874,-5.2638 1.3796,4.0077 -14.5166,4.9981 c -3.7046,1.276 -6.4475,2.0257 -8.2138,2.2489 -1.7725,0.2208 -3.379,-0.096 -4.8197,-0.9592 -1.4482,-0.8606 -2.5084,-2.2888 -3.1932,-4.2759 -0.711,-2.0656 -0.8432,-3.8281 -0.3929,-5.2787 0.444,-1.4494 1.3508,-2.7005 2.7092,-3.7533 1.3583,-1.0527 4.1062,-2.2889 8.2424,-3.7133 z m -18.8961,48.3658 -0.6386,-4.5565 6.3203,-2.7404 -1.165,-8.2874 -6.8168,-0.7858 -0.6261,-4.4555 30.0784,4.0139 0.6225,4.4381 z m 10.3655,-9.3251 10.3392,-4.3632 -11.135,-1.3023 z m -10.7659,11.9795 28.9846,0.5064 -0.0748,4.2198 -24.0576,-0.4204 -0.1833,10.5276 -4.9258,-0.0861 z m -3.5711,36.4861 0.7197,-4.5441 6.8454,-0.7734 1.3098,-8.2649 -6.2892,-2.7441 0.7035,-4.4443 27.5913,12.6318 -0.7022,4.4269 z m 12.6381,-5.8863 11.1637,-1.15 -10.2694,-4.5004 z m -238.5098,-17.8869 -29.2228,0.5102 -0.0736,-4.1998 19.3613,-9.0844 -19.5135,0.3405 -0.0698,-4.0165 29.2215,-0.5101 0.0761,4.3382 -18.906,8.9373 19.0557,-0.3318 z m 0.3904,-21.4418 -28.9421,-4.0676 0.5987,-4.2622 28.9421,4.0676 z m 2.0856,-13.5749 -30.1932,0.8582 1.054,-4.5591 22.2925,-0.3966 -19.9039,-9.9588 1.0328,-4.4705 26.7593,14.0201 z m 3.7932,-14.1599 -26.7007,-11.8884 6.4525,-14.4929 4.5191,2.012 -4.7025,10.5625 5.9187,2.6344 4.3707,-9.8141 4.4929,2.002 -4.3682,9.8141 7.2658,3.2343 4.8609,-10.9167 4.5017,2.0044 z m 8.1963,-18.2087 -24.5116,-15.9186 4.9495,-7.62 c 1.266,-1.9484 2.3936,-3.1995 3.3753,-3.7483 0.9816,-0.5501 2.1928,-0.7409 3.6248,-0.57 1.4406,0.1683 2.9137,0.7484 4.4243,1.73 1.9184,1.2461 3.2007,2.6569 3.8381,4.236 0.6349,1.5841 0.6137,3.2281 -0.0674,4.9283 1.1301,-0.3668 2.2253,-0.5663 3.2942,-0.5888 1.0728,-0.0274 2.8515,0.1435 5.3374,0.5139 l 6.1956,0.9318 -2.7978,4.3071 -7.0425,-0.8395 c -2.5346,-0.3068 -4.1612,-0.4515 -4.8659,-0.4241 -0.7048,0.02 -1.271,0.1659 -1.7039,0.4204 -0.4253,0.2582 -0.9105,0.8057 -1.4519,1.639 l -0.4864,0.7484 10.2319,6.6446 z m -11.8037,-12.7965 1.7451,-2.688 c 1.064,-1.639 1.6627,-2.7342 1.7924,-3.2855 0.1322,-0.5514 0.0412,-1.1251 -0.2682,-1.7239 -0.3118,-0.5925 -0.8756,-1.1612 -1.6864,-1.6876 -0.7808,-0.5077 -1.5005,-0.7721 -2.1529,-0.8058 -0.6561,-0.0287 -1.2261,0.1372 -1.7139,0.5014 -0.343,0.2545 -1.039,1.2 -2.0905,2.8178 l -1.8398,2.8352 z m 16.2517,-11.1301 2.5196,-3.4227 c 3.0161,2.2552 5.4409,2.4373 7.2708,0.5426 0.9031,-0.9342 1.3409,-1.9371 1.3072,-3.0086 -0.0274,-1.0702 -0.4503,-1.9932 -1.2623,-2.7778 -0.479,-0.4628 -0.9742,-0.7634 -1.4881,-0.8981 -0.5189,-0.1372 -1.0714,-0.1148 -1.6577,0.0611 -0.5863,0.1771 -1.8386,0.7572 -3.772,1.7426 -1.7275,0.8868 -3.1483,1.3883 -4.2671,1.488 -1.1189,0.1111 -2.2827,-0.0673 -3.4876,-0.5313 -1.2062,-0.4653 -2.3001,-1.175 -3.2843,-2.1255 -1.145,-1.1064 -1.9546,-2.335 -2.4273,-3.6859 -0.464,-1.3509 -0.5389,-2.6643 -0.2208,-3.9341 0.3281,-1.2698 1.0665,-2.506 2.2303,-3.7109 1.7438,-1.8074 3.6547,-2.688 5.7353,-2.6369 2.078,0.0424 4.1736,1.0266 6.2729,2.945 l -2.8103,3.2843 c -1.2661,-0.9518 -2.3363,-1.4208 -3.2256,-1.402 -0.8794,0.0199 -1.7276,0.4477 -2.5334,1.2822 -0.8058,0.8345 -1.2336,1.669 -1.276,2.4985 -0.0474,0.8307 0.2182,1.5267 0.8057,2.0942 0.5713,0.5526 1.2499,0.8096 2.0382,0.7771 0.7921,-0.0262 2.1305,-0.5588 4.019,-1.5766 2.0194,-1.0702 3.641,-1.6827 4.8683,-1.8373 1.2287,-0.1547 2.4685,0.0124 3.7034,0.4964 1.2399,0.4877 2.4897,1.3396 3.752,2.5596 1.8261,1.7625 2.8714,3.7445 3.1508,5.9448 0.2744,2.2053 -0.6187,4.3732 -2.6755,6.5037 -3.6385,3.7669 -8.0704,3.5462 -13.2855,-0.6724 z m 21.4157,-8.1626 -17.993,-23.031 3.3915,-2.6493 17.993,23.031 z m 10.7296,-7.8533 -13.2231,-20.3629 -5.3237,3.4577 -2.6955,-4.1487 14.2422,-9.2491 2.6943,4.1487 -5.3087,3.4477 13.2243,20.3629 z m 26.8778,-13.8991 -4.2859,1.9084 -4.4093,-5.3062 -7.7959,3.4701 1.0926,6.7831 -4.1911,1.866 -4.2858,-30.0847 4.1748,-1.8586 z m -11.9608,-7.3307 -7.0961,-8.7127 1.7687,11.0852 z m 11.0228,-2.4373 3.9778,-1.4981 c 1.301,3.5338 3.2368,5.0081 5.8026,4.4156 1.2661,-0.2931 2.1791,-0.8943 2.7342,-1.8123 0.5601,-0.9119 0.7085,-1.916 0.4553,-3.0174 -0.1509,-0.6486 -0.4017,-1.1712 -0.7596,-1.5629 -0.3605,-0.3979 -0.8358,-0.6798 -1.4245,-0.8519 -0.5875,-0.1709 -1.9521,-0.3655 -4.1113,-0.5925 -1.9309,-0.1971 -3.3977,-0.5501 -4.3894,-1.0765 -0.9978,-0.5151 -1.8772,-1.2985 -2.6356,-2.345 -0.7584,-1.0478 -1.2885,-2.2377 -1.5954,-3.5699 -0.3592,-1.5529 -0.3692,-3.0236 -0.0299,-4.4143 0.3468,-1.3858 0.9979,-2.5284 1.9571,-3.4203 0.9667,-0.8868 2.2602,-1.5205 3.8917,-1.8972 2.4485,-0.565 4.5291,-0.2632 6.2467,0.9118 1.7201,1.1676 2.9412,3.1334 3.6572,5.8875 l -4.1462,1.2236 c -0.5425,-1.488 -1.1862,-2.4647 -1.9408,-2.9325 -0.7497,-0.4627 -1.6939,-0.5663 -2.824,-0.3056 -1.1289,0.2607 -1.9434,0.7285 -2.4311,1.4008 -0.4914,0.6711 -0.6486,1.3983 -0.464,2.1941 0.1796,0.7758 0.6075,1.3621 1.286,1.7637 0.6786,0.4092 2.0906,0.6911 4.2285,0.8669 2.2777,0.2009 3.9703,0.5713 5.0854,1.1102 1.1139,0.5388 2.0619,1.3546 2.834,2.4323 0.7746,1.0852 1.3584,2.4797 1.7538,4.1898 0.57,2.4735 0.3692,4.7063 -0.5963,6.7033 -0.9716,1.9982 -2.9,3.3304 -5.7851,3.9965 -5.1042,1.1787 -8.7003,-1.4208 -10.7771,-7.7997 z" />
    </g>
  </g>
</svg>
